<svg xmlns="http://www.w3.org/2000/svg" viewBox="-0.5 -0.5 40 40" id="Square-Envelope--Streamline-Font-Awesome.svg" height="40" width="40"><desc>Square Envelope Streamline Icon: https://streamlinehq.com</desc><!--! Font Awesome Free 6.5.2 by @fontawesome - https://fontawesome.com License - https://fontawesome.com/license/free (Icons: CC BY 4.0, Fonts: SIL OFL 1.1, Code: MIT License) Copyright 2024 Fonticons, Inc.--><path d="M5.85 0.39C2.83846875 0.39 0.39 2.83846875 0.39 5.85v27.3c0 3.01153125 2.44846875 5.46 5.46 5.46h27.3c3.01153125 0 5.46 -2.44846875 5.46 -5.46V5.85c0 -3.01153125 -2.44846875 -5.46 -5.46 -5.46H5.85Zm13.138124999999999 20.44940625L5.867062499999999 12.367875c0.1535625 -1.365 1.30528125 -2.422875 2.7129375000000002 -2.422875h21.84c1.40765625 0 2.5593749999999997 1.057875 2.7129375000000002 2.422875L20.011875 20.83940625c-0.1535625 0.102375 -0.33271875 0.1535625 -0.511875 0.1535625s-0.3583125 -0.0511875 -0.511875 -0.1535625Zm2.5081875 2.29490625L33.15 15.60975V26.324999999999996c0 1.51003125 -1.2199687499999998 2.73 -2.73 2.73H8.58c-1.51003125 0 -2.73 -1.2199687499999998 -2.73 -2.73V15.60975l11.653687499999998 7.5245625c0.5971875 0.38390625 1.28821875 0.5886562499999999 1.9963124999999997 0.5886562499999999s1.399125 -0.20475 1.9963124999999997 -0.5886562499999999Z" stroke-width="1"></path></svg>