<svg xmlns="http://www.w3.org/2000/svg" viewBox="-0.5 -0.5 40 40" id="Square-Github--Streamline-Font-Awesome.svg" height="40" width="40"><desc>Square Github Streamline Icon: https://streamlinehq.com</desc><!--! Font Awesome Free 6.5.2 by @fontawesome - https://fontawesome.com License - https://fontawesome.com/license/free (Icons: CC BY 4.0, Fonts: SIL OFL 1.1, Code: MIT License) Copyright 2024 Fonticons, Inc.--><path d="M38.61 5.85c0 -3.01153125 -2.44846875 -5.46 -5.46 -5.46H5.85C2.83846875 0.39 0.39 2.83846875 0.39 5.85v27.3c0 3.01153125 2.44846875 5.46 5.46 5.46h27.3c3.01153125 0 5.46 -2.44846875 5.46 -5.46V5.85ZM23.066062499999997 32.441906249999995c0 -0.1535625 0 -0.511875 0.00853125 -0.989625 0.00853125 -0.9725625 0.00853125 -2.457 0.00853125 -3.72815625 0 -1.330875 -0.443625 -2.17546875 -0.9640312499999999 -2.6190937499999998 3.1565624999999997 -0.34978125 6.48375 -0.784875 6.48375 -6.2363437500000005 0 -1.5526874999999998 -0.55453125 -2.32903125 -1.4588437499999998 -3.3271875 0.14503125 -0.36684375 0.6313124999999999 -1.8768749999999998 -0.14503125 -3.8390625 -1.1858437499999999 -0.36684375 -3.89878125 1.5270937500000001 -3.89878125 1.5270937500000001 -1.126125 -0.31565624999999997 -2.3460937499999996 -0.47775 -3.549 -0.47775s-2.422875 0.16209375 -3.549 0.47775c0 0 -2.7129375000000002 -1.8939374999999998 -3.89878125 -1.5270937500000001 -0.7763437499999999 1.9536562499999999 -0.29859375 3.4636874999999994 -0.14503125 3.8390625 -0.9043125 0.9981562499999999 -1.330875 1.7745 -1.330875 3.3271875 0 5.4258750000000004 3.1821562500000002 5.8865625 6.338718749999999 6.2363437500000005 -0.4095 0.36684375 -0.7763437499999999 0.9981562499999999 -0.9043125 1.90246875 -0.81046875 0.36684375 -2.8835625 0.9981562499999999 -4.12059375 -1.1858437499999999 -0.7763437499999999 -1.3479375 -2.17546875 -1.4588437499999998 -2.17546875 -1.4588437499999998 -1.3820625 -0.0170625 -0.09384375 0.8701875 -0.09384375 0.8701875 0.9213749999999999 0.4265625 1.56975 2.0645625 1.56975 2.0645625 0.8275312499999999 2.53378125 4.78603125 1.68065625 4.78603125 1.68065625 0 0.7678125 0.00853125 1.8512812499999998 0.00853125 2.6105625 0 0.4095 0.00853125 0.7336875 0.00853125 0.853125 0 0.36684375 -0.2559375 0.81046875 -0.9810937499999999 0.6825 -5.630625 -1.88540625 -9.5720625 -7.24303125 -9.5720625 -13.504968749999998 0 -7.831687499999999 5.9889375000000005 -13.77796875 13.820624999999998 -13.77796875s14.1789375 5.946281249999999 14.1789375 13.77796875c0.00853125 6.2619375 -3.8134687499999997 11.62809375 -9.44409375 13.504968749999998 -0.716625 0.12796875 -0.9810937499999999 -0.31565624999999997 -0.9810937499999999 -0.6825Zm-7.720781249999999 -4.6751249999999995c-0.0170625 -0.12796875 0.09384375 -0.238875 0.2559375 -0.273 0.16209375 -0.0170625 0.31565624999999997 0.0511875 0.33271875 0.16209375 0.02559375 0.11090625 -0.0853125 0.2218125 -0.2559375 0.2559375 -0.16209375 0.034125 -0.31565624999999997 -0.034125 -0.33271875 -0.14503125Zm-0.7763437499999999 0.273c-0.1876875 0.0170625 -0.31565624999999997 -0.07678125 -0.31565624999999997 -0.20475 0 -0.11090625 0.12796875 -0.20475 0.29859375 -0.20475 0.16209375 -0.0170625 0.31565624999999997 0.07678125 0.31565624999999997 0.20475 0 0.11090625 -0.12796875 0.20475 -0.29859375 0.20475Zm-1.2199687499999998 -0.1876875c-0.16209375 -0.034125 -0.273 -0.16209375 -0.238875 -0.273s0.20475 -0.16209375 0.34978125 -0.12796875c0.170625 0.0511875 0.28153125 0.17915625 0.238875 0.2900625 -0.034125 0.11090625 -0.20475 0.16209375 -0.34978125 0.11090625Zm-1.06640625 -0.62278125c-0.12796875 -0.11090625 -0.16209375 -0.273 -0.07678125 -0.34978125 0.07678125 -0.09384375 0.238875 -0.07678125 0.36684375 0.0511875 0.11090625 0.11090625 0.1535625 0.28153125 0.07678125 0.34978125 -0.07678125 0.09384375 -0.238875 0.07678125 -0.36684375 -0.0511875Zm-0.72515625 -0.853125c-0.09384375 -0.12796875 -0.09384375 -0.273 0 -0.33271875 0.09384375 -0.07678125 0.238875 -0.0170625 0.31565624999999997 0.11090625 0.09384375 0.12796875 0.09384375 0.28153125 0 0.34978125 -0.07678125 0.0511875 -0.2218125 0 -0.31565624999999997 -0.12796875Zm-0.53746875 -0.75075c-0.09384375 -0.11090625 -0.11090625 -0.238875 -0.034125 -0.29859375 0.07678125 -0.07678125 0.20475 -0.034125 0.29859375 0.0511875 0.09384375 0.11090625 0.11090625 0.238875 0.034125 0.29859375 -0.07678125 0.07678125 -0.20475 0.034125 -0.29859375 -0.0511875Zm-0.511875 -0.546c-0.11090625 -0.0511875 -0.16209375 -0.14503125 -0.12796875 -0.2218125 0.034125 -0.0511875 0.12796875 -0.07678125 0.238875 -0.034125 0.11090625 0.05971875 0.16209375 0.1535625 0.12796875 0.2218125 -0.034125 0.07678125 -0.14503125 0.09384375 -0.238875 0.034125Z" stroke-width="1"></path></svg>