<svg xmlns="http://www.w3.org/2000/svg" viewBox="-0.5 -0.5 40 40" id="Linkedin--Streamline-Font-Awesome.svg" height="40" width="40"><desc>Linkedin Streamline Icon: https://streamlinehq.com</desc><!--! Font Awesome Free 6.5.2 by @fontawesome - https://fontawesome.com License - https://fontawesome.com/license/free (Icons: CC BY 4.0, Fonts: SIL OFL 1.1, Code: MIT License) Copyright 2024 Fonticons, Inc.--><path d="M35.88 0.39H3.11146875C1.60996875 0.39 0.39 1.62703125 0.39 3.1455937499999997v32.7088125c0 1.5185624999999998 1.2199687499999998 2.75559375 2.72146875 2.75559375H35.88c1.5015 0 2.73 -1.23703125 2.73 -2.75559375V3.1455937499999997c0 -1.5185624999999998 -1.2285 -2.75559375 -2.73 -2.75559375ZM11.941312499999999 33.15H6.276562499999999V14.910187500000001h5.67328125V33.15Zm-2.832375 -20.7309375c-1.8171562499999998 0 -3.2845312499999997 -1.47590625 -3.2845312499999997 -3.2845312499999997s1.467375 -3.2845312499999997 3.2845312499999997 -3.2845312499999997c1.808625 0 3.2845312499999997 1.47590625 3.2845312499999997 3.2845312499999997 0 1.8171562499999998 -1.467375 3.2845312499999997 -3.2845312499999997 3.2845312499999997ZM33.17559375 33.15h-5.66475V24.2775c0 -2.11575 -0.04265625 -4.83721875 -2.94328125 -4.83721875 -2.9518125 0 -3.4039687499999998 2.3034375 -3.4039687499999998 4.683656249999999V33.15h-5.66475V14.910187500000001h5.43440625v2.491125h0.07678125c0.7592812499999999 -1.43325 2.6105625 -2.94328125 5.36615625 -2.94328125 5.733 0 6.79940625 3.77934375 6.79940625 8.693343749999999V33.15Z" stroke-width="1"></path></svg>