<svg xmlns="http://www.w3.org/2000/svg" viewBox="0 0 40 40" id="Medium-New--Streamline-Streamline--3.0.svg" height="40" width="40"><desc>Medium New Streamline Icon: https://streamlinehq.com</desc><path d="M38.333333333333336 0H1.6666666666666667a1.6666666666666667 1.6666666666666667 0 0 0 -1.6666666666666667 1.6666666666666667v36.66666666666667a1.6666666666666667 1.6666666666666667 0 0 0 1.6666666666666667 1.6666666666666667h36.66666666666667a1.6666666666666667 1.6666666666666667 0 0 0 1.6666666666666667 -1.6666666666666667V1.6666666666666667a1.6666666666666667 1.6666666666666667 0 0 0 -1.6666666666666667 -1.6666666666666667Zm-4.4 9.75L31.666666666666668 11.8a0.6833333333333333 0.6833333333333333 0 0 0 -0.25 0.6166666666666667v15.8a0.65 0.65 0 0 0 0.25 0.6l2.2500000000000004 2.216666666666667v0.45000000000000007H23.333333333333336v-0.45000000000000007l1.9333333333333333 -2.266666666666667c0.21666666666666667 -0.21666666666666667 0.21666666666666667 -0.2833333333333334 0.21666666666666667 -0.6V16.666666666666668l-4.666666666666667 13.166666666666668 -0.5166666666666667 1.6666666666666667h-1.3166666666666669c-4.416666666666667 -9.633333333333335 -5.8 -13.033333333333335 -7.166666666666667 -15.333333333333332v11.666666666666668l2.7333333333333334 3.3333333333333335v0.45000000000000007H6.666666666666667v-0.45000000000000007l2.666666666666667 -3.3333333333333335v-15L7.2666666666666675 10.250000000000002l0 -0.8666666666666667h7.949999999999999l5.366666666666667 12.85L25 10.1a1.2666666666666668 1.2666666666666668 0 0 1 1.3166666666666669 -0.9666666666666667h7.633333333333334Z" fill="#000000" stroke-width="1"></path></svg>