<svg xmlns="http://www.w3.org/2000/svg" viewBox="0 0 24 24" id="Search-Circle--Streamline-Streamline-3.0.svg"><desc>Search Circle Streamline Icon: https://streamlinehq.com</desc><g><path d="M15.24 14.15a0.24 0.24 0 0 1 0 -0.32 5 5 0 0 0 0.85 -2.8 5 5 0 1 0 -5 5 5 5 0 0 0 2.8 -0.86 0.24 0.24 0 0 1 0.31 0l2.54 2.54a0.78 0.78 0 0 0 1.09 0 0.77 0.77 0 0 0 0 -1.1Zm-4.24 0.37A3.49 3.49 0 1 1 14.52 11 3.48 3.48 0 0 1 11 14.52Z" fill="currentColor" stroke-width="1"></path><path d="M12 0a12 12 0 1 0 12 12A12 12 0 0 0 12 0Zm0 22a10 10 0 1 1 10 -10 10 10 0 0 1 -10 10Z" fill="currentColor" stroke-width="1"></path></g></svg>