<svg xmlns="http://www.w3.org/2000/svg" viewBox="0 0 24 24" id="Arrow-Button-Left-1--Streamline-Streamline-3.0.svg"><desc>Arrow Button Left 1 Streamline Icon: https://streamlinehq.com</desc><g><path d="M10.42 12a2.64 2.64 0 0 1 0.77 -1.88L20.73 0.58a1.77 1.77 0 0 1 2.5 2.5l-8.74 8.74a0.27 0.27 0 0 0 0 0.36l8.74 8.74a1.77 1.77 0 0 1 -2.5 2.5l-9.54 -9.54a2.64 2.64 0 0 1 -0.77 -1.88Z" fill="currentColor" stroke-width="1"></path><path d="M0.25 12A2.65 2.65 0 0 1 1 10.12L10.57 0.58a1.77 1.77 0 0 1 2.5 2.5l-8.74 8.74a0.25 0.25 0 0 0 0 0.36l8.74 8.74a1.77 1.77 0 0 1 -2.5 2.5L1 13.88A2.65 2.65 0 0 1 0.25 12Z" fill="currentColor" stroke-width="1"></path></g></svg>