<svg xmlns="http://www.w3.org/2000/svg" viewBox="-0.5 -0.5 40 40" id="Square-X-Twitter--Streamline-Font-Awesome.svg" height="40" width="40"><desc>Square X Twitter Streamline Icon: https://streamlinehq.com</desc><!--! Font Awesome Free 6.5.2 by @fontawesome - https://fontawesome.com License - https://fontawesome.com/license/free (Icons: CC BY 4.0, Fonts: SIL OFL 1.1, Code: MIT License) Copyright 2024 Fonticons, Inc.--><path d="M5.85 0.39C2.83846875 0.39 0.39 2.83846875 0.39 5.85v27.3c0 3.01153125 2.44846875 5.46 5.46 5.46h27.3c3.01153125 0 5.46 -2.44846875 5.46 -5.46V5.85c0 -3.01153125 -2.44846875 -5.46 -5.46 -5.46H5.85ZM31.19634375 7.5562499999999995 22.34090625 17.6743125 32.7575625 31.443749999999998h-8.155875L18.2203125 23.091656249999996 10.909031249999998 31.443749999999998h-4.0523437499999995l9.4696875 -10.826156249999999L6.33628125 7.5562499999999995h8.360625l5.77565625 7.635468749999999 6.6714375 -7.635468749999999h4.0523437499999995Zm-3.2248124999999996 21.464625L13.4769375 9.85115625h-2.41434375l14.6566875 19.169718749999998h2.2437187499999998Z" stroke-width="1"></path></svg>